<svg width="180" height="64" viewBox="0 0 180 64" fill="none" xmlns="http://www.w3.org/2000/svg">
<path d="M68.1328 47.8859C68.1328 48.0031 68.0744 48.8234 67.9577 50.347H44.2044C44.6324 52.3002 45.644 53.8432 47.2393 54.9761C48.8345 56.109 50.8188 56.6754 53.1921 56.6754C54.8263 56.6754 56.2659 56.441 57.5109 55.9722C58.7949 55.4644 59.9816 54.6831 61.071 53.6284L65.915 58.9021C62.958 62.3007 58.6392 64 52.9587 64C49.4181 64 46.286 63.3164 43.5625 61.9491C40.8389 60.5428 38.7379 58.6091 37.2594 56.148C35.7809 53.687 35.0416 50.8939 35.0416 47.7687C35.0416 44.6826 35.7614 41.909 37.201 39.448C38.6795 36.9478 40.6833 35.0141 43.2123 33.6469C45.7802 32.2406 48.6399 31.5374 51.7915 31.5374C54.8652 31.5374 57.6471 32.2015 60.1372 33.5297C62.6273 34.8579 64.5727 36.772 65.9734 39.2722C67.413 41.7332 68.1328 44.6045 68.1328 47.8859ZM51.8498 38.4518C49.7877 38.4518 48.0563 39.0378 46.6556 40.2097C45.2549 41.3816 44.399 42.9833 44.0877 45.0146H59.5536C59.2423 43.0224 58.3863 41.4402 56.9857 40.2683C55.585 39.0573 53.873 38.4518 51.8498 38.4518Z" fill="#3BB77E"/>
<path d="M74.1942 20.0524H83.2986V63.5312H74.1942V20.0524Z" fill="#3BB77E"/>
<path d="M91.7483 32.0062H100.853V63.5312H91.7483V32.0062ZM96.3005 27.6114C94.6275 27.6114 93.2657 27.1231 92.2152 26.1465C91.1647 25.1699 90.6394 23.9589 90.6394 22.5135C90.6394 21.0681 91.1647 19.8571 92.2152 18.8805C93.2657 17.9039 94.6275 17.4156 96.3005 17.4156C97.9736 17.4156 99.3353 17.8843 100.386 18.8219C101.436 19.7594 101.962 20.9314 101.962 22.3377C101.962 23.8612 101.436 25.1308 100.386 26.1465C99.3353 27.1231 97.9736 27.6114 96.3005 27.6114Z" fill="#3BB77E"/>
<path d="M129.262 63.5312L122.375 53.8628L115.255 63.5312H105.334L117.415 47.6515L105.742 32.0062H115.956L122.609 41.2059L129.437 32.0062H139.125L127.453 47.4171L139.592 63.5312H129.262Z" fill="#3BB77E"/>
<path d="M0 61.6808V43.4139C0 30.6786 6.60122 20.3547 14.744 20.3547V38.6226C14.744 51.3574 8.14342 61.6808 0 61.6808Z" fill="#3BB77E"/>
<path d="M47.9181 0H23.6086C4.66665 0 0 6.07568 0 13.5698H24.3089C40.8539 13.5698 47.9181 7.49471 47.9181 0Z" fill="#3BB77E"/>
<path d="M41.7747 22.2051H30.2431C24.058 22.2051 19.0444 27.1761 19.0444 33.3076H30.5755C36.7611 33.3076 41.7747 28.3371 41.7747 22.2051Z" fill="#3BB77E"/>
<path d="M106.28 11.7194C106.28 8.99412 108.48 6.78489 111.195 6.78489H175.085C177.8 6.78489 180 8.99412 180 11.7194V22.8219C180 25.5471 177.8 27.7564 175.085 27.7564H111.195C108.48 27.7564 106.28 25.5471 106.28 22.8219V11.7194Z" fill="#2D3748"/>
<path d="M113.417 14.78V13.4976C113.417 12.9277 113.484 12.4188 113.619 11.971C113.754 11.5232 113.937 11.1568 114.167 10.8719C114.396 10.5869 114.68 10.3562 115.018 10.1798C115.37 9.98982 115.734 9.86091 116.113 9.79306C116.505 9.71164 116.944 9.66415 117.431 9.65058C118.458 9.62344 119.519 9.67093 120.614 9.79306C121.708 9.91519 122.56 10.0645 123.168 10.2409V12.4799C121.627 12.3442 119.972 12.2763 118.201 12.2763C117.485 12.2628 116.978 12.3442 116.681 12.5206C116.397 12.6834 116.255 13.0837 116.255 13.7215V14.4543C116.255 15.0242 116.37 15.4042 116.599 15.5941C116.829 15.7841 117.241 15.8791 117.836 15.8791H120.188C120.539 15.8791 120.864 15.913 121.161 15.9809C121.472 16.0487 121.735 16.1437 121.952 16.2658C122.181 16.388 122.384 16.5305 122.56 16.6933C122.749 16.8561 122.904 17.0393 123.026 17.2429C123.161 17.4464 123.269 17.6567 123.35 17.8739C123.445 18.0774 123.513 18.2945 123.553 18.5252C123.607 18.7559 123.641 18.9798 123.654 19.1969C123.682 19.4005 123.695 19.6108 123.695 19.8279V20.8253C123.695 21.4766 123.614 22.0466 123.452 22.5351C123.29 23.0236 123.08 23.4103 122.823 23.6953C122.58 23.9803 122.269 24.2109 121.891 24.3874C121.526 24.5638 121.161 24.6791 120.796 24.7334C120.431 24.8012 120.032 24.8352 119.6 24.8352C117.154 24.8352 115.241 24.6316 113.863 24.2245V21.9855C115.349 22.1348 117.072 22.2094 119.032 22.2094C119.289 22.2094 119.505 22.1958 119.681 22.1687C119.87 22.1416 120.059 22.0873 120.249 22.0059C120.451 21.9244 120.6 21.7955 120.695 21.6191C120.803 21.4291 120.857 21.1985 120.857 20.9271V20.1332C120.857 19.6583 120.762 19.3055 120.573 19.0748C120.384 18.8441 120.032 18.7288 119.519 18.7288H117.248C114.694 18.7152 113.417 17.3989 113.417 14.78Z" fill="white"/>
<path d="M125.01 12.3985V9.7727H135.977V12.3985H131.862V24.6723H129.024V12.3985H125.01Z" fill="white"/>
<path d="M137.392 17.3243C137.392 16.6322 137.412 15.9944 137.453 15.4109C137.507 14.8274 137.581 14.305 137.676 13.8436C137.784 13.3823 137.899 12.9684 138.02 12.602C138.155 12.222 138.318 11.8964 138.507 11.625C138.696 11.34 138.885 11.0958 139.074 10.8922C139.277 10.6751 139.514 10.4987 139.784 10.363C140.054 10.2137 140.311 10.0984 140.554 10.017C140.811 9.92197 141.102 9.85412 141.426 9.81342C141.751 9.75914 142.055 9.72521 142.338 9.71164C142.636 9.6845 142.974 9.67093 143.352 9.67093C143.839 9.67093 144.258 9.6845 144.609 9.71164C144.974 9.73878 145.352 9.79985 145.744 9.89483C146.15 9.97625 146.494 10.0984 146.778 10.2612C147.062 10.4241 147.346 10.6344 147.63 10.8922C147.927 11.1365 148.17 11.4554 148.36 11.8489C148.549 12.2288 148.718 12.6766 148.866 13.1923C149.015 13.6944 149.123 14.2982 149.191 15.0039C149.272 15.6959 149.312 16.4694 149.312 17.3243C149.312 18.247 149.258 19.0748 149.15 19.8076C149.056 20.5268 148.927 21.151 148.765 21.6802C148.603 22.1958 148.38 22.6436 148.096 23.0236C147.826 23.39 147.535 23.6885 147.224 23.9192C146.927 24.1363 146.562 24.3127 146.13 24.4484C145.697 24.5705 145.265 24.652 144.832 24.6927C144.413 24.7334 143.92 24.7537 143.352 24.7537C142.852 24.7537 142.413 24.7402 142.034 24.713C141.669 24.6859 141.284 24.6316 140.879 24.5502C140.487 24.4688 140.149 24.3534 139.865 24.2042C139.581 24.0413 139.297 23.8378 139.014 23.5935C138.73 23.3357 138.493 23.0236 138.304 22.6572C138.115 22.2773 137.946 21.843 137.797 21.3545C137.662 20.8524 137.561 20.2689 137.493 19.604C137.426 18.9255 137.392 18.1656 137.392 17.3243ZM140.23 17.3243C140.23 18.1656 140.257 18.8577 140.311 19.4005C140.365 19.9297 140.453 20.3843 140.575 20.7642C140.71 21.1442 140.906 21.4291 141.163 21.6191C141.419 21.8091 141.71 21.9448 142.034 22.0262C142.372 22.0941 142.811 22.128 143.352 22.128C144.19 22.128 144.819 22.0059 145.237 21.7616C145.656 21.5173 145.967 21.056 146.17 20.3775C146.373 19.6854 146.474 18.6677 146.474 17.3243C146.474 16.5508 146.447 15.8927 146.393 15.3499C146.353 14.7935 146.271 14.3321 146.15 13.9658C146.028 13.5858 145.893 13.2873 145.744 13.0702C145.609 12.853 145.413 12.6902 145.156 12.5816C144.9 12.4595 144.636 12.3849 144.366 12.3577C144.109 12.317 143.771 12.2967 143.352 12.2967C143.001 12.2967 142.71 12.3103 142.48 12.3374C142.264 12.351 142.028 12.3917 141.771 12.4595C141.528 12.5274 141.332 12.6359 141.183 12.7852C141.048 12.9209 140.906 13.1109 140.757 13.3551C140.622 13.5994 140.521 13.9047 140.453 14.2711C140.385 14.6239 140.331 15.0513 140.291 15.5534C140.25 16.0555 140.23 16.6458 140.23 17.3243Z" fill="white"/>
<path d="M151.034 24.6723V9.7727H157.521C158.129 9.7727 158.67 9.85412 159.143 10.017C159.616 10.1662 160.035 10.4173 160.4 10.7701C160.778 11.1093 161.069 11.5911 161.271 12.2153C161.474 12.8259 161.575 13.5587 161.575 14.4136C161.575 15.1192 161.515 15.7366 161.393 16.2658C161.271 16.7951 161.136 17.2022 160.988 17.4871C160.839 17.7585 160.636 18.0028 160.379 18.2199C160.123 18.4234 159.927 18.5524 159.791 18.6066C159.656 18.6609 159.46 18.7288 159.204 18.8102L162.022 24.6723H158.818L156.365 19.0341L153.872 18.7491V24.6723H151.034ZM153.892 16.5101H157.257C157.528 16.5101 157.744 16.4897 157.906 16.449C158.068 16.3948 158.21 16.293 158.332 16.1437C158.467 15.9944 158.562 15.7841 158.616 15.5127C158.683 15.2278 158.717 14.8614 158.717 14.4136C158.717 13.613 158.595 13.0634 158.352 12.7648C158.109 12.4527 157.744 12.2967 157.257 12.2967H153.892V16.5101Z" fill="white"/>
<path d="M163.49 21.7412V12.8666C163.49 12.3645 163.557 11.9235 163.692 11.5436C163.828 11.1636 164.003 10.8651 164.22 10.648C164.436 10.4308 164.686 10.2544 164.97 10.1187C165.267 9.96947 165.551 9.87448 165.821 9.83377C166.105 9.79306 166.402 9.7727 166.713 9.7727C170.2 9.86769 172.376 9.97625 173.241 10.0984V12.4595H167.382C167.125 12.4595 166.923 12.4867 166.774 12.5409C166.625 12.5952 166.517 12.6902 166.45 12.8259C166.396 12.9616 166.362 13.0769 166.348 13.1719C166.335 13.2669 166.328 13.4094 166.328 13.5994V15.9198L172.329 16.1234V18.4845L166.328 18.6677V20.9881C166.328 21.246 166.362 21.4563 166.429 21.6191C166.497 21.7684 166.605 21.8769 166.754 21.9448C166.902 21.9991 167.024 22.033 167.119 22.0466C167.227 22.0466 167.382 22.0466 167.585 22.0466H173.241V24.3874C172.903 24.4281 172.207 24.4823 171.153 24.5502C170.099 24.6045 169.126 24.6452 168.234 24.6723L166.916 24.7334C166.605 24.747 166.314 24.7402 166.044 24.713C165.774 24.6859 165.476 24.6113 165.152 24.4891C164.828 24.367 164.544 24.2042 164.301 24.0006C164.071 23.7971 163.875 23.5053 163.713 23.1254C163.564 22.7318 163.49 22.2705 163.49 21.7412Z" fill="white"/>
</svg>
